<?xml version="1.0" encoding="UTF-8" standalone="no"?>
<!DOCTYPE svg PUBLIC "-//W3C//DTD SVG 1.1//EN" "http://www.w3.org/Graphics/SVG/1.1/DTD/svg11.dtd">
<svg xmlns="http://www.w3.org/2000/svg" version="1.1" viewBox="0 0 200 60">
<path fill="#905efe" fill-opacity="0.996" d="M 36.26,10.21 L 21.73,28.49 A 0.65,0.65 45.8 0 0 21.72,29.28 L 24.65,33.01 A 0.46,0.46 45.4 0 0 25.37,33.02 L 45.44,7.64 A 1.02,0.96 57.7 0 0 45.61,6.77 Q 44.33,2.04 49.00,1.99 A 1.32,1.18 -21.0 0 1 49.87,2.32 Q 51.74,4.06 51.12,6.78 Q 50.56,9.21 47.37,9.18 A 1.07,1.06 -70.1 0 0 46.55,9.57 L 25.31,36.35 A 0.43,0.43 -90.0 0 1 24.63,36.35 L 19.34,29.69 A 1.35,1.28 -45.4 0 1 19.37,28.05 L 35.14,8.09 A 1.26,1.06 62.6 0 0 35.34,7.20 Q 35.03,5.34 35.98,3.94 Q 36.95,2.53 38.61,2.58 Q 40.76,2.64 41.06,5.44 Q 41.55,9.99 37.06,9.84 A 1.01,1.01 -69.8 0 0 36.26,10.21 ZM 48.1639,6.9188 A 1.34,0.99 92.4 0 0 49.2091,5.6215 A 1.34,0.99 92.4 0 0 48.2761,4.2412 A 1.34,0.99 92.4 0 0 47.2309,5.5385 A 1.34,0.99 92.4 0 0 48.1639,6.9188 ZM 38.2500,7.2900 A 1.15,0.99 90.0 0 0 39.2400,6.1400 A 1.15,0.99 90.0 0 0 38.2500,4.9900 A 1.15,0.99 90.0 0 0 37.2600,6.1400 A 1.15,0.99 90.0 0 0 38.2500,7.2900 Z"/>
<path fill="#905efe" fill-opacity="0.996" d="M 6.57,24.62 L 22.72,4.18 A 0.61,0.58 -44.4 0 1 23.66,4.17 L 28.02,10.02 Q 28.31,10.40 28.77,10.65 Q 29.96,11.30 29.04,12.01 Q 28.43,12.48 28.22,12.76 Q 17.99,26.01 7.57,39.10 A 0.88,0.87 53.9 0 0 7.44,39.96 Q 8.22,42.05 7.19,43.19 Q 3.73,47.01 2.00,42.50 Q 0.73,39.18 3.81,37.48 A 1.31,0.85 30.4 0 1 4.71,37.44 Q 5.98,37.80 7.00,36.50 Q 16.26,24.65 26.34,12.13 A 0.76,0.64 -44.8 0 0 26.41,11.28 L 23.62,7.49 A 0.49,0.44 -44.8 0 0 22.88,7.53 Q 16.19,15.93 9.97,24.00 Q 9.92,24.07 8.75,25.23 Q 7.68,26.32 8.12,27.83 Q 8.66,29.68 7.20,30.93 Q 4.30,33.41 2.57,29.96 Q 1.56,27.94 2.74,26.02 Q 3.92,24.09 5.80,24.80 A 0.71,0.64 28.7 0 0 6.57,24.62 ZM 5.1196,29.5334 A 1.29,1.01 95.8 0 0 6.2548,28.3521 A 1.29,1.01 95.8 0 0 5.3804,26.9666 A 1.29,1.01 95.8 0 0 4.2452,28.1479 A 1.29,1.01 95.8 0 0 5.1196,29.5334 ZM 3.99,40.49 Q 3.57,42.18 4.64,42.13 Q 5.35,42.09 5.62,41.51 Q 5.94,40.85 5.27,40.15 Q 4.32,39.14 3.99,40.49 Z"/>
<path fill="#faf9fc" fill-opacity="0.996" d="M 74.37,27.23 Q 77.23,20.19 80.49,13.32 Q 81.11,12.00 82.05,11.73 Q 83.09,11.42 84.13,11.94 A 1.57,1.11 83.6 0 1 84.76,12.65 L 91.35,27.24 Q 91.56,27.70 91.76,27.22 Q 94.33,21.03 97.10,14.92 Q 97.13,14.87 97.66,13.40 Q 98.56,10.91 101.28,11.82 A 0.47,0.45 -68.3 0 1 101.54,12.46 L 93.52,30.11 A 0.93,0.65 -73.9 0 1 92.83,30.67 L 90.18,30.67 A 0.95,0.66 73.2 0 1 89.48,30.11 L 83.03,15.76 Q 82.75,15.14 82.46,15.76 L 76.03,29.86 A 1.34,1.18 -86.0 0 1 75.36,30.52 Q 72.74,31.57 71.31,28.69 Q 67.29,20.56 63.23,12.46 A 0.48,0.44 66.3 0 1 63.45,11.81 Q 65.91,10.87 66.94,13.06 Q 71.24,22.24 73.95,27.25 Q 74.19,27.69 74.37,27.23 Z"/>
<rect fill="#faf9fc" fill-opacity="0.996" x="-1.50" y="-1.50" transform="translate(122.72,13.25) rotate(1.9)" width="3.00" height="3.00" rx="0.68"/>
<path fill="#faf9fc" fill-opacity="0.996" d="M 149.51,17.46 Q 155.26,14.53 160.31,16.69 Q 162.66,17.69 162.72,21.25 Q 162.79,25.59 162.70,29.93 A 0.74,0.57 86.4 0 1 162.23,30.62 Q 161.99,30.68 161.73,30.64 Q 161.16,30.55 160.78,30.64 Q 159.47,30.92 159.81,29.57 Q 160.00,28.82 160.00,28.40 Q 159.96,24.46 159.50,20.55 A 1.28,1.20 -75.1 0 0 159.06,19.73 Q 157.29,18.29 155.07,18.45 Q 152.21,18.66 151.90,18.69 Q 149.79,18.92 149.25,21.00 Q 148.56,23.64 149.20,30.00 A 0.67,0.61 79.1 0 1 148.78,30.69 Q 147.68,31.04 146.67,30.51 A 0.89,0.77 -78.1 0 1 146.25,29.75 L 146.25,12.50 A 0.77,0.67 81.5 0 1 146.70,11.80 Q 147.82,11.39 148.79,12.01 A 1.01,0.68 -79.0 0 1 149.13,12.81 L 149.03,17.19 A 0.33,0.31 -13.8 0 0 149.51,17.46 Z"/>
<path fill="#faf9fc" fill-opacity="0.996" d="M 185.69,18.78 L 184.31,18.85 A 0.71,0.58 -10.0 0 1 183.63,18.47 Q 182.66,15.79 185.27,16.37 A 0.78,0.59 18.9 0 0 186.06,16.11 Q 186.48,15.35 186.12,14.04 A 0.85,0.85 -16.0 0 1 186.70,13.00 Q 189.82,12.04 188.84,14.98 A 1.15,1.08 8.8 0 0 189.95,16.41 L 197.06,16.40 A 0.72,0.70 80.9 0 1 197.73,16.90 Q 198.39,19.03 196.25,18.86 Q 194.84,18.75 194.74,18.75 Q 192.64,18.75 190.00,18.75 A 0.79,0.77 -0.4 0 0 189.21,19.53 L 189.27,26.61 A 1.68,1.63 4.2 0 0 190.69,28.20 Q 195.47,28.95 195.57,24.81 A 1.18,0.85 77.3 0 1 195.93,23.97 Q 196.77,23.30 197.56,23.92 Q 198.09,24.33 198.13,25.17 Q 198.31,29.49 193.56,30.56 Q 189.47,31.49 187.48,29.23 Q 186.27,27.85 186.26,24.45 Q 186.26,21.88 186.20,19.31 A 0.54,0.48 87.9 0 0 185.69,18.78 Z"/>
<path fill="#905efe" fill-opacity="0.996" d="M 37.64,48.02 A 1.34,1.07 48.7 0 0 37.71,49.47 L 40.09,52.93 A 0.54,0.50 47.7 0 0 40.92,53.00 L 55.62,34.32 A 1.43,1.23 -30.6 0 0 55.92,33.44 Q 55.88,32.54 55.82,31.65 Q 55.75,30.66 56.17,29.95 Q 57.72,27.33 59.75,28.78 Q 61.27,29.86 61.50,31.68 Q 61.74,33.65 60.19,35.19 Q 59.17,36.19 57.78,35.75 A 0.75,0.65 26.3 0 0 57.00,35.95 L 40.81,56.35 A 0.40,0.39 -44.7 0 1 40.19,56.36 L 34.80,49.41 A 0.67,0.65 -45.1 0 1 34.81,48.60 Q 45.36,35.13 55.94,21.69 Q 56.58,20.87 56.19,19.72 Q 56.00,19.15 56.06,18.75 Q 56.61,15.11 59.92,15.65 A 1.82,1.81 84.3 0 1 61.32,16.80 Q 63.00,21.25 59.71,22.81 A 1.22,0.86 38.4 0 1 58.81,22.76 Q 57.65,22.24 56.98,23.30 Q 56.48,24.10 56.45,24.14 Q 47.23,36.06 37.64,48.02 ZM 58.9500,20.5600 A 1.31,0.91 90.0 0 0 59.8600,19.2500 A 1.31,0.91 90.0 0 0 58.9500,17.9400 A 1.31,0.91 90.0 0 0 58.0400,19.2500 A 1.31,0.91 90.0 0 0 58.9500,20.5600 ZM 58.6535,33.2784 A 1.30,0.93 87.2 0 0 59.5189,31.9346 A 1.30,0.93 87.2 0 0 58.5265,30.6816 A 1.30,0.93 87.2 0 0 57.6611,32.0254 A 1.30,0.93 87.2 0 0 58.6535,33.2784 Z"/>
<path fill="#faf9fc" fill-opacity="0.996" d="M 113.64,22.52 Q 114.00,21.04 113.19,19.86 Q 112.52,18.90 111.08,18.67 Q 109.18,18.36 107.25,18.75 Q 105.62,19.08 103.81,20.31 Q 102.45,21.24 101.22,20.48 A 0.74,0.69 -68.5 0 1 100.91,19.70 Q 101.17,18.57 101.84,17.65 Q 102.43,16.82 103.62,16.49 Q 108.95,15.02 113.44,16.56 Q 116.50,17.61 116.62,21.50 Q 116.75,25.37 116.92,29.24 Q 117.01,31.38 114.43,30.57 A 3.85,3.76 46.7 0 0 112.44,30.49 Q 108.60,31.41 104.66,30.73 Q 101.79,30.24 100.68,28.43 Q 99.47,26.44 100.92,24.34 Q 101.93,22.90 104.03,22.49 Q 108.53,21.63 113.01,22.86 A 0.52,0.47 14.1 0 0 113.64,22.52 ZM 112.88,25.46 Q 108.45,24.06 104.05,25.18 A 0.94,0.86 -0.0 0 0 103.39,25.79 Q 102.76,28.00 105.50,28.25 Q 108.52,28.52 110.19,28.37 Q 110.40,28.35 111.81,28.34 Q 113.09,28.33 113.63,27.24 A 1.28,1.27 -67.9 0 0 112.88,25.46 Z"/>
<path fill="#faf9fc" fill-opacity="0.996" d="M 140.74,22.44 Q 140.84,20.60 139.66,19.29 A 1.28,1.00 64.2 0 0 138.81,18.87 L 131.81,18.98 A 0.90,0.66 -75.5 0 0 131.14,19.53 Q 130.33,21.43 128.37,20.54 A 0.76,0.74 -76.4 0 1 127.94,19.81 Q 128.06,17.33 130.75,16.50 Q 135.36,15.07 139.99,16.54 Q 142.74,17.41 143.50,20.25 Q 143.94,21.87 143.78,27.07 Q 143.78,27.17 143.83,28.93 Q 143.93,31.93 141.11,30.32 A 1.15,1.13 51.4 0 0 140.21,30.21 Q 136.91,31.14 132.00,30.75 Q 129.70,30.57 128.39,29.39 Q 127.04,28.18 127.14,26.12 Q 127.25,23.50 129.94,22.69 Q 134.30,21.36 140.21,22.81 A 0.42,0.41 9.2 0 0 140.74,22.44 ZM 139.27,25.21 Q 135.17,24.14 131.04,25.18 A 0.93,0.90 0.9 0 0 130.39,25.79 Q 129.63,28.21 131.84,28.30 Q 133.45,28.36 133.66,28.39 Q 136.49,28.73 139.28,28.10 Q 140.05,27.92 140.44,27.50 Q 141.09,26.78 140.64,26.05 Q 140.28,25.47 139.27,25.21 Z"/>
<path fill="#faf9fc" fill-opacity="0.996" d="M 178.71,22.45 Q 178.74,20.57 177.53,19.17 A 1.25,1.05 -15.9 0 0 176.68,18.79 Q 174.25,18.72 171.81,18.74 Q 171.73,18.74 170.71,18.66 Q 169.34,18.56 168.89,19.76 A 1.18,0.86 -83.1 0 1 168.28,20.42 Q 164.67,21.64 166.57,17.86 A 2.27,2.26 -83.9 0 1 168.01,16.69 Q 173.37,15.29 178.00,16.50 Q 181.33,17.37 181.57,21.57 Q 181.80,25.53 181.87,29.50 Q 181.90,31.28 179.76,30.59 Q 178.76,30.27 177.72,30.46 Q 173.40,31.26 169.28,30.58 Q 163.74,29.65 165.71,24.59 A 2.95,2.95 4.3 0 1 167.84,22.76 Q 173.21,21.60 178.20,22.81 A 0.41,0.38 7.7 0 0 178.71,22.45 ZM 178.6308,26.5737 A 1.70 1.70 0.0 0 0 176.9517,24.8530 L 169.9323,24.7673 A 1.70 1.70 0.0 0 0 168.2116,26.4464 L 168.2092,26.6463 A 1.70 1.70 0.0 0 0 169.8883,28.3670 L 176.9077,28.4527 A 1.70 1.70 0.0 0 0 178.6284,26.7736 L 178.6308,26.5737 Z"/>
<path fill="#faf9fc" fill-opacity="0.996" d="M 122.95,16.28 Q 124.25,15.78 124.14,17.49 Q 123.76,23.61 124.08,29.72 Q 124.21,32.31 123.71,33.34 Q 122.73,35.36 119.93,35.12 A 0.83,0.75 -5.7 0 1 119.24,34.61 Q 118.66,32.98 120.53,32.48 A 0.97,0.97 82.7 0 0 121.25,31.54 Q 121.25,24.80 121.25,18.33 Q 121.25,18.24 121.11,17.18 Q 120.98,16.20 122.02,16.38 A 1.74,1.73 38.6 0 0 122.95,16.28 Z"/>
<path fill="#905efe" fill-opacity="0.996" d="M 41.97,31.07 L 39.00,27.62 A 0.54,0.50 -46.8 0 0 38.20,27.67 L 18.88,52.44 A 2.25,2.20 62.9 0 0 18.41,53.95 Q 18.73,59.28 14.28,57.84 Q 12.50,57.27 12.56,55.40 Q 12.68,51.08 16.56,51.05 A 1.06,0.95 16.8 0 0 17.37,50.67 L 38.19,24.15 A 0.47,0.46 -49.1 0 1 38.87,24.09 Q 41.72,26.77 44.44,30.88 A 1.10,1.10 -42.4 0 1 44.38,32.16 L 28.92,51.89 A 2.03,2.02 64.1 0 0 28.49,53.14 Q 28.52,57.31 25.74,57.92 A 1.35,1.27 51.7 0 1 24.81,57.78 Q 21.52,56.02 23.10,52.29 Q 24.08,49.96 26.44,50.81 A 0.91,0.88 -60.5 0 0 27.45,50.51 L 41.93,31.89 A 0.71,0.59 -47.1 0 0 41.97,31.07 ZM 25.4323,55.6678 A 1.35,1.08 93.3 0 0 26.5882,54.3822 A 1.35,1.08 93.3 0 0 25.5877,52.9722 A 1.35,1.08 93.3 0 0 24.4318,54.2578 A 1.35,1.08 93.3 0 0 25.4323,55.6678 ZM 16.12,53.88 Q 15.51,52.45 14.68,53.77 Q 14.10,54.69 14.69,55.60 A 0.93,0.93 73.2 0 0 15.49,56.03 Q 17.03,55.97 16.12,53.88 Z"/>
<path fill="#faf9fc" fill-opacity="0.996" d="M 71.30,48.27 Q 74.74,48.85 79.25,48.50 Q 83.02,48.21 81.65,45.02 A 0.83,0.79 -8.9 0 0 80.94,44.53 Q 77.41,44.31 73.89,44.12 Q 70.65,43.95 69.35,42.96 Q 66.99,41.16 68.94,37.62 A 1.57,1.57 -88.7 0 1 69.63,36.96 Q 73.56,34.97 77.92,35.52 Q 78.00,35.53 80.59,35.70 Q 83.21,35.87 84.24,38.28 Q 84.60,39.12 84.32,39.74 Q 83.94,40.53 82.90,40.23 A 1.14,0.84 81.7 0 1 82.27,39.60 Q 81.40,37.54 79.15,37.63 Q 77.43,37.71 77.34,37.71 Q 75.31,37.64 73.30,37.89 Q 71.92,38.05 71.11,38.88 Q 69.41,40.61 71.70,41.45 Q 72.45,41.73 73.85,41.83 Q 77.27,42.06 81.25,42.29 Q 83.87,42.45 84.35,45.03 Q 85.43,50.82 79.00,50.80 Q 75.28,50.80 71.57,50.53 Q 69.25,50.36 68.25,48.25 A 1.42,1.20 76.2 0 1 69.25,46.25 Q 70.84,46.30 70.85,47.70 A 0.60,0.53 -86.6 0 0 71.30,48.27 Z"/>
<circle fill="#faf9fc" fill-opacity="0.996" cx="87.95" cy="37.03" r="1.29"/>
<path fill="#faf9fc" fill-opacity="0.996" d="M 101.22,39.57 Q 102.77,40.15 102.45,38.53 Q 101.78,35.11 104.06,36.02 A 0.84,0.83 12.1 0 1 104.58,36.82 Q 104.41,43.50 104.57,49.44 Q 104.61,51.19 102.20,50.30 A 1.57,1.55 -41.7 0 0 101.24,50.25 Q 98.61,50.98 95.97,50.69 Q 93.50,50.41 92.31,49.07 Q 91.27,47.90 91.17,46.23 Q 91.09,44.93 91.29,43.27 Q 91.77,39.23 96.49,39.04 Q 99.45,38.92 101.22,39.57 ZM 102.1273,43.4625 A 1.95 1.95 0.0 0 0 100.1739,41.5159 L 95.5139,41.5241 A 1.95 1.95 0.0 0 0 93.5673,43.4775 L 93.5727,46.5375 A 1.95 1.95 0.0 0 0 95.5261,48.4841 L 100.1861,48.4759 A 1.95 1.95 0.0 0 0 102.1327,46.5225 L 102.1273,43.4625 Z"/>
<path fill="#faf9fc" fill-opacity="0.996" d="M 116.97,39.18 L 117.00,36.73 A 0.98,0.95 -85.2 0 1 118.10,35.77 Q 119.63,36.02 119.47,37.25 Q 119.27,38.72 119.27,38.79 Q 119.38,42.77 119.28,46.76 Q 119.28,46.83 119.35,48.75 Q 119.47,51.55 116.94,50.24 A 1.19,1.13 47.9 0 0 116.03,50.17 Q 112.85,51.27 109.52,50.44 Q 107.24,49.87 106.52,48.04 Q 106.03,46.81 105.93,44.56 Q 105.75,40.67 109.75,39.25 Q 111.34,38.69 116.45,39.60 A 0.44,0.43 5.1 0 0 116.97,39.18 ZM 116.8376,43.1389 A 1.68 1.68 0.0 0 0 115.1372,41.4796 L 110.1175,41.5409 A 1.68 1.68 0.0 0 0 108.4582,43.2413 L 108.5024,46.8611 A 1.68 1.68 0.0 0 0 110.2028,48.5204 L 115.2225,48.4591 A 1.68 1.68 0.0 0 0 116.8818,46.7587 L 116.8376,43.1389 Z"/>
<ellipse fill="#faf9fc" fill-opacity="0.996" cx="0.00" cy="0.00" transform="translate(122.88,37.04) rotate(-20.9)" rx="1.31" ry="1.20"/>
<rect fill="#faf9fc" fill-opacity="0.996" x="-1.24" y="-1.19" transform="translate(157.49,37.08) rotate(6.4)" width="2.48" height="2.38" rx="0.76"/>
<rect fill="#faf9fc" fill-opacity="0.996" x="-1.15" y="-5.70" transform="translate(87.90,45.00) rotate(-0.3)" width="2.30" height="11.40" rx="0.81"/>
<path fill="#faf9fc" fill-opacity="0.996" d="M 136.22,50.37 Q 133.82,51.14 130.80,50.69 Q 128.48,50.34 127.37,49.27 Q 126.30,48.23 126.15,46.68 Q 126.08,45.92 126.08,43.94 Q 126.07,39.60 131.00,39.25 Q 133.74,39.05 138.81,39.63 A 0.60,0.56 3.0 0 1 139.34,40.18 L 139.46,53.44 A 0.63,0.62 85.1 0 1 138.95,54.06 Q 136.82,54.43 137.36,51.37 A 0.89,0.88 86.0 0 0 136.22,50.37 ZM 136.8975,43.1807 A 1.71 1.71 0.0 0 0 135.1756,41.4827 L 130.1957,41.5175 A 1.71 1.71 0.0 0 0 128.4977,43.2394 L 128.5225,46.7993 A 1.71 1.71 0.0 0 0 130.2444,48.4973 L 135.2243,48.4625 A 1.71 1.71 0.0 0 0 136.9223,46.7406 L 136.8975,43.1807 Z"/>
<path fill="#faf9fc" fill-opacity="0.996" d="M 151.00,49.81 Q 149.08,50.82 146.00,50.75 Q 143.37,50.69 142.11,49.20 Q 141.24,48.15 141.24,45.58 Q 141.23,42.82 141.30,40.06 A 0.73,0.66 83.8 0 1 141.79,39.38 Q 142.63,39.16 143.36,39.67 A 0.87,0.72 -69.6 0 1 143.65,40.49 Q 143.33,42.13 143.53,43.77 Q 143.54,43.89 143.64,46.25 Q 143.75,48.85 147.25,48.50 Q 149.73,48.25 150.70,48.06 A 0.79,0.74 -88.5 0 0 151.30,47.45 Q 151.99,44.40 151.72,41.25 Q 151.50,38.60 153.55,39.52 A 0.82,0.75 -79.0 0 1 154.00,40.25 L 153.94,49.68 A 1.00,0.84 77.0 0 1 153.53,50.49 Q 152.43,51.16 151.67,49.99 A 0.52,0.52 -29.6 0 0 151.00,49.81 Z"/>
<rect fill="#faf9fc" fill-opacity="0.996" x="-1.25" y="-5.70" transform="translate(157.50,45.03) rotate(0.1)" width="2.50" height="11.40" rx="0.89"/>
<rect fill="#faf9fc" fill-opacity="0.996" x="-1.13" y="-5.55" transform="translate(122.89,45.06) rotate(0.2)" width="2.26" height="11.10" rx="0.43"/>
</svg>
